<svg width="50" height="50" viewBox="0 0 50 50" fill="none" xmlns="http://www.w3.org/2000/svg">
<g filter="url(#filter0_b_1_22)">
<rect width="50" height="50" rx="25" fill="url(#paint0_linear_1_22)"/>
<path d="M25 13.75H21.25C20.2554 13.75 19.3016 14.1451 18.5983 14.8483C17.8951 15.5516 17.5 16.5054 17.5 17.5C17.5 18.4946 17.8951 19.4484 18.5983 20.1517C19.3016 20.8549 20.2554 21.25 21.25 21.25H25M25 13.75V21.25M25 13.75H28.75C29.7446 13.75 30.6984 14.1451 31.4017 14.8483C32.1049 15.5516 32.5 16.5054 32.5 17.5C32.5 18.4946 32.1049 19.4484 31.4017 20.1517C30.6984 20.8549 29.7446 21.25 28.75 21.25H25" stroke="#00ED64" stroke-width="1.5" stroke-linecap="round" stroke-linejoin="round"/>
<path d="M21.25 28.75C20.2554 28.75 19.3016 29.1451 18.5983 29.8483C17.8951 30.5516 17.5 31.5054 17.5 32.5C17.5 33.4946 17.8951 34.4484 18.5983 35.1517C19.3016 35.8549 20.2554 36.25 21.25 36.25C22.2446 36.25 23.1984 35.8549 23.9017 35.1517C24.6049 34.4484 25 33.4946 25 32.5V28.75M21.25 28.75H25M21.25 28.75C20.2554 28.75 19.3016 28.3549 18.5983 27.6517C17.8951 26.9484 17.5 25.9946 17.5 25C17.5 24.0054 17.8951 23.0516 18.5983 22.3483C19.3016 21.6451 20.2554 21.25 21.25 21.25H25V28.75M25 25C25 24.0054 25.3951 23.0516 26.0983 22.3483C26.8016 21.6451 27.7554 21.25 28.75 21.25C29.7446 21.25 30.6984 21.6451 31.4017 22.3483C32.1049 23.0516 32.5 24.0054 32.5 25C32.5 25.9946 32.1049 26.9484 31.4017 27.6517C30.6984 28.3549 29.7446 28.75 28.75 28.75C27.7554 28.75 26.8016 28.3549 26.0983 27.6517C25.3951 26.9484 25 25.9946 25 25Z" stroke="#00ED64" stroke-width="1.5" stroke-linecap="round" stroke-linejoin="round"/>
</g>
<defs>
<filter id="filter0_b_1_22" x="-20" y="-20" width="90" height="90" filterUnits="userSpaceOnUse" color-interpolation-filters="sRGB">
<feFlood flood-opacity="0" result="BackgroundImageFix"/>
<feGaussianBlur in="BackgroundImageFix" stdDeviation="10"/>
<feComposite in2="SourceAlpha" operator="in" result="effect1_backgroundBlur_1_22"/>
<feBlend mode="normal" in="SourceGraphic" in2="effect1_backgroundBlur_1_22" result="shape"/>
</filter>
<linearGradient id="paint0_linear_1_22" x1="0" y1="0" x2="36.8041" y2="58.3266" gradientUnits="userSpaceOnUse">
<stop stop-color="white" stop-opacity="0.1"/>
<stop offset="1" stop-color="white" stop-opacity="0.05"/>
</linearGradient>
</defs>
</svg>
