<svg width="50" height="50" viewBox="0 0 50 50" fill="none" xmlns="http://www.w3.org/2000/svg">
<g filter="url(#filter0_b_1_30)">
<rect width="50" height="50" rx="25" fill="url(#paint0_linear_1_30)"/>
<path d="M38.8279 21.5664L32.2654 14.0664C32.1773 13.9668 32.0691 13.8871 31.9478 13.8326C31.8266 13.778 31.6952 13.7499 31.5622 13.75H18.4372C18.3043 13.7499 18.1729 13.778 18.0516 13.8326C17.9304 13.8871 17.8222 13.9668 17.7341 14.0664L11.1716 21.5664C11.0192 21.7433 10.9372 21.9702 10.9416 22.2037C10.9459 22.4372 11.0361 22.6609 11.1951 22.832L24.3201 36.8945C24.4076 36.9867 24.5131 37.0601 24.6299 37.1103C24.7468 37.1605 24.8726 37.1863 24.9997 37.1863C25.1269 37.1863 25.2527 37.1605 25.3696 37.1103C25.4864 37.0601 25.5919 36.9867 25.6794 36.8945L38.8044 22.832C38.9633 22.6609 39.0536 22.4372 39.0579 22.2037C39.0622 21.9702 38.9803 21.7433 38.8279 21.5664ZM36.0622 21.25H31.2107L26.8982 15.625H31.1404L36.0622 21.25ZM18.613 23.125L22.199 31.8672L14.031 23.125H18.613ZM29.3591 23.125L24.9997 33.7773L20.6404 23.125H29.3591ZM21.1443 21.25L24.9997 16.2227L28.8552 21.25H21.1443ZM31.3865 23.125H35.9685L27.8005 31.8672L31.3865 23.125ZM18.8591 15.625H23.1013L18.7888 21.25H13.9372L18.8591 15.625Z" fill="#00ED64"/>
</g>
<defs>
<filter id="filter0_b_1_30" x="-20" y="-20" width="90" height="90" filterUnits="userSpaceOnUse" color-interpolation-filters="sRGB">
<feFlood flood-opacity="0" result="BackgroundImageFix"/>
<feGaussianBlur in="BackgroundImageFix" stdDeviation="10"/>
<feComposite in2="SourceAlpha" operator="in" result="effect1_backgroundBlur_1_30"/>
<feBlend mode="normal" in="SourceGraphic" in2="effect1_backgroundBlur_1_30" result="shape"/>
</filter>
<linearGradient id="paint0_linear_1_30" x1="0" y1="0" x2="36.8041" y2="58.3266" gradientUnits="userSpaceOnUse">
<stop stop-color="white" stop-opacity="0.1"/>
<stop offset="1" stop-color="white" stop-opacity="0.05"/>
</linearGradient>
</defs>
</svg>
