<svg width="51" height="50" viewBox="0 0 51 50" fill="none" xmlns="http://www.w3.org/2000/svg">
<g filter="url(#filter0_b_1_68)">
<rect x="0.333313" width="50" height="50" rx="25" fill="url(#paint0_linear_1_68)"/>
<path d="M34.5913 19.375C35.5395 19.375 36.4488 19.7516 37.1192 20.4221C37.7897 21.0925 38.1663 22.0019 38.1663 22.95V27.675C38.1663 28.1445 38.0739 28.6094 37.8942 29.0431C37.7145 29.4768 37.4512 29.8709 37.1192 30.2029C36.7873 30.5349 36.3932 30.7982 35.9594 30.9779C35.5257 31.1575 35.0608 31.25 34.5913 31.25H25.6663C25.6663 31.7375 26.0663 32.45 26.5538 32.45H31.9163V34.55C31.9163 35.4981 31.5397 36.4075 30.8692 37.0779C30.1988 37.7483 29.2895 38.125 28.3413 38.125H22.9913C22.0432 38.125 21.1339 37.7483 20.4634 37.0779C19.793 36.4075 19.4163 35.4981 19.4163 34.55V29.8625C19.4163 29.3936 19.5089 28.9293 19.6887 28.4963C19.8685 28.0633 20.132 27.67 20.4642 27.339C20.7963 27.008 21.1905 26.7459 21.6242 26.5676C22.0578 26.3893 22.5224 26.2984 22.9913 26.3H29.5538C30.0227 26.3 30.487 26.2074 30.92 26.0276C31.3531 25.8478 31.7463 25.5843 32.0773 25.2522C32.4083 24.92 32.6704 24.5258 32.8487 24.0921C33.027 23.6585 33.118 23.1939 33.1163 22.725V19.375H34.5913ZM29.2413 34.1125C28.7413 34.1125 28.3413 34.4875 28.3413 35.225C28.3413 35.9625 28.7413 36.1125 29.2413 36.1125C29.3579 36.1125 29.4733 36.0895 29.581 36.0449C29.6886 36.0003 29.7865 35.935 29.8689 35.8526C29.9513 35.7701 30.0167 35.6723 30.0613 35.5646C30.1059 35.457 30.1288 35.3415 30.1288 35.225C30.1288 34.4875 29.7288 34.1125 29.2413 34.1125ZM16.7413 31.875C15.7932 31.875 14.8839 31.4983 14.2134 30.8279C13.543 30.1575 13.1663 29.2481 13.1663 28.3V23.575C13.1663 23.1055 13.2588 22.6406 13.4385 22.2069C13.6181 21.7732 13.8814 21.3791 14.2134 21.0471C14.8839 20.3766 15.7932 20 16.7413 20H25.6663C25.6663 19.5125 25.2663 18.8 24.7788 18.8H19.4163V16.7C19.4163 15.7519 19.793 14.8425 20.4634 14.1721C21.1339 13.5017 22.0432 13.125 22.9913 13.125H28.3413C28.8108 13.125 29.2757 13.2175 29.7094 13.3971C30.1432 13.5768 30.5373 13.8401 30.8692 14.1721C31.2012 14.5041 31.4645 14.8982 31.6442 15.3319C31.8239 15.7656 31.9163 16.2305 31.9163 16.7V21.3875C31.9163 21.8564 31.8238 22.3207 31.644 22.7537C31.4641 23.1867 31.2006 23.58 30.8685 23.911C30.5363 24.242 30.1421 24.5041 29.7085 24.6824C29.2748 24.8607 28.8102 24.9516 28.3413 24.95H21.7788C21.3099 24.95 20.8457 25.0426 20.4126 25.2224C19.9796 25.4022 19.5863 25.6657 19.2553 25.9978C18.9244 26.33 18.6622 26.7242 18.4839 27.1579C18.3056 27.5915 18.2147 28.0561 18.2163 28.525V31.875H16.7413ZM22.0913 17.1375C22.5913 17.1375 22.9913 16.7625 22.9913 16.025C22.9913 15.2875 22.5913 15.1375 22.0913 15.1375C21.6038 15.1375 21.2038 15.2875 21.2038 16.025C21.2038 16.7625 21.6038 17.1375 22.0913 17.1375Z" fill="#00ED64"/>
</g>
<defs>
<filter id="filter0_b_1_68" x="-19.6667" y="-20" width="90" height="90" filterUnits="userSpaceOnUse" color-interpolation-filters="sRGB">
<feFlood flood-opacity="0" result="BackgroundImageFix"/>
<feGaussianBlur in="BackgroundImageFix" stdDeviation="10"/>
<feComposite in2="SourceAlpha" operator="in" result="effect1_backgroundBlur_1_68"/>
<feBlend mode="normal" in="SourceGraphic" in2="effect1_backgroundBlur_1_68" result="shape"/>
</filter>
<linearGradient id="paint0_linear_1_68" x1="0.333313" y1="0" x2="37.1374" y2="58.3266" gradientUnits="userSpaceOnUse">
<stop stop-color="white" stop-opacity="0.1"/>
<stop offset="1" stop-color="white" stop-opacity="0.05"/>
</linearGradient>
</defs>
</svg>
