<svg width="51" height="50" viewBox="0 0 51 50" fill="none" xmlns="http://www.w3.org/2000/svg">
<g filter="url(#filter0_b_1_47)">
<rect x="0.666656" width="50" height="50" rx="25" fill="url(#paint0_linear_1_47)"/>
<g clip-path="url(#clip0_1_47)">
<path d="M25.6667 27.0217C26.3463 27.0217 26.9981 26.7516 27.4786 26.2708C27.9592 25.7901 28.2292 25.138 28.2292 24.4581C28.2292 23.7782 27.9592 23.1262 27.4786 22.6454C26.9981 22.1646 26.3463 21.8945 25.6667 21.8945C24.987 21.8945 24.3353 22.1646 23.8547 22.6454C23.3741 23.1262 23.1042 23.7782 23.1042 24.4581C23.1042 25.138 23.3741 25.7901 23.8547 26.2708C24.3353 26.7516 24.987 27.0217 25.6667 27.0217Z" stroke="#00ED64" stroke-width="1.54492"/>
<path d="M25.6667 29.7075C33.2604 29.7075 39.4167 27.3566 39.4167 24.4553C39.4167 21.5541 33.2604 19.2031 25.6667 19.2031C18.0729 19.2031 11.9167 21.5541 11.9167 24.4553C11.9167 27.3566 18.0729 29.7075 25.6667 29.7075Z" stroke="#00ED64" stroke-width="1.54492"/>
<path d="M21.1207 27.0832C24.9169 33.6622 30.0307 37.8202 32.5419 36.3696C35.0532 34.919 34.0107 28.41 30.2132 21.831C26.4169 15.2519 21.3044 11.0939 18.7919 12.5446C16.2807 13.9939 17.3232 20.5042 21.1207 27.0832Z" stroke="#00ED64" stroke-width="1.54492"/>
<path d="M21.1203 21.8313C17.3228 28.4104 16.279 34.9206 18.7915 36.37C21.3028 37.8206 26.4165 33.6626 30.2128 27.0835C34.0103 20.5045 35.054 13.9955 32.5415 12.5449C30.0303 11.0931 24.9165 15.2523 21.1203 21.8313Z" stroke="#00ED64" stroke-width="1.54492"/>
</g>
</g>
<defs>
<filter id="filter0_b_1_47" x="-19.3333" y="-20" width="90" height="90" filterUnits="userSpaceOnUse" color-interpolation-filters="sRGB">
<feFlood flood-opacity="0" result="BackgroundImageFix"/>
<feGaussianBlur in="BackgroundImageFix" stdDeviation="10"/>
<feComposite in2="SourceAlpha" operator="in" result="effect1_backgroundBlur_1_47"/>
<feBlend mode="normal" in="SourceGraphic" in2="effect1_backgroundBlur_1_47" result="shape"/>
</filter>
<linearGradient id="paint0_linear_1_47" x1="0.666656" y1="0" x2="37.4707" y2="58.3266" gradientUnits="userSpaceOnUse">
<stop stop-color="white" stop-opacity="0.1"/>
<stop offset="1" stop-color="white" stop-opacity="0.05"/>
</linearGradient>
<clipPath id="clip0_1_47">
<rect width="30" height="27.5211" fill="white" transform="translate(10.6667 11)"/>
</clipPath>
</defs>
</svg>
