<svg width="50" height="50" viewBox="0 0 50 50" fill="none" xmlns="http://www.w3.org/2000/svg">
<g filter="url(#filter0_b_1_87)">
<rect width="50" height="50" rx="25" fill="url(#paint0_linear_1_87)"/>
<path d="M31.3625 34.6508C28.4125 36.3508 24.375 36.5258 20.2875 34.7758C17.0787 33.398 14.3633 31.0793 12.5 28.1258C13.3375 28.8133 14.325 29.3758 15.375 29.8758C19.5875 31.8383 23.7875 31.7008 26.75 29.8758C22.5375 26.6383 18.95 22.4258 16.2875 18.9883C15.725 18.4258 15.3125 17.7258 14.8875 17.1008C25.2375 24.6633 24.7875 26.5883 17.9 15.8383C24.0125 22.0133 29.6875 25.5133 29.6875 25.5133C29.8875 25.6258 30 25.7133 30.1375 25.7883C30.2625 25.4758 30.375 25.1508 30.4625 24.8133C31.45 21.2508 30.325 17.1633 27.8625 13.8008C33.55 17.2383 36.925 23.6883 35.5125 29.1008C35.475 29.2383 35.4375 29.3758 35.45 29.5883C38.25 33.1258 37.5 36.8133 37.1375 36.1133C35.625 33.1258 32.7875 34.0508 31.3625 34.6508Z" fill="#00ED64"/>
</g>
<defs>
<filter id="filter0_b_1_87" x="-20" y="-20" width="90" height="90" filterUnits="userSpaceOnUse" color-interpolation-filters="sRGB">
<feFlood flood-opacity="0" result="BackgroundImageFix"/>
<feGaussianBlur in="BackgroundImageFix" stdDeviation="10"/>
<feComposite in2="SourceAlpha" operator="in" result="effect1_backgroundBlur_1_87"/>
<feBlend mode="normal" in="SourceGraphic" in2="effect1_backgroundBlur_1_87" result="shape"/>
</filter>
<linearGradient id="paint0_linear_1_87" x1="0" y1="0" x2="36.8041" y2="58.3266" gradientUnits="userSpaceOnUse">
<stop stop-color="white" stop-opacity="0.1"/>
<stop offset="1" stop-color="white" stop-opacity="0.05"/>
</linearGradient>
</defs>
</svg>
