<svg width="50" height="50" viewBox="0 0 50 50" fill="none" xmlns="http://www.w3.org/2000/svg">
<g filter="url(#filter0_b_1_27)">
<rect width="50" height="50" rx="25" fill="url(#paint0_linear_1_27)"/>
<path d="M19.968 25.064L16 30.904H18.4L21.248 26.632C21.712 27.48 22.128 28.184 22.64 28.968L23.952 30.904H26.368L22.528 25.048L26.352 19.208H23.968L21.248 23.496C20.816 22.696 20.416 22.024 19.936 21.304L18.512 19.208H16.08L19.968 25.064Z" fill="#00ED64"/>
<path d="M30.3278 31.112C31.5278 31.112 32.5518 30.584 33.0317 29.672L33.1597 30.904H34.9517V19H33.0158V24.008C32.5198 23.224 31.5437 22.76 30.4397 22.76C28.0557 22.76 26.6158 24.52 26.6158 26.984C26.6158 29.432 28.0398 31.112 30.3278 31.112ZM30.7598 29.32C29.3997 29.32 28.5677 28.328 28.5677 26.92C28.5677 25.512 29.3997 24.504 30.7598 24.504C32.1198 24.504 32.9998 25.496 32.9998 26.92C32.9998 28.344 32.1198 29.32 30.7598 29.32Z" fill="#00ED64"/>
</g>
<defs>
<filter id="filter0_b_1_27" x="-20" y="-20" width="90" height="90" filterUnits="userSpaceOnUse" color-interpolation-filters="sRGB">
<feFlood flood-opacity="0" result="BackgroundImageFix"/>
<feGaussianBlur in="BackgroundImageFix" stdDeviation="10"/>
<feComposite in2="SourceAlpha" operator="in" result="effect1_backgroundBlur_1_27"/>
<feBlend mode="normal" in="SourceGraphic" in2="effect1_backgroundBlur_1_27" result="shape"/>
</filter>
<linearGradient id="paint0_linear_1_27" x1="0" y1="0" x2="36.8041" y2="58.3266" gradientUnits="userSpaceOnUse">
<stop stop-color="white" stop-opacity="0.1"/>
<stop offset="1" stop-color="white" stop-opacity="0.05"/>
</linearGradient>
</defs>
</svg>
